<svg width="33" height="32" viewBox="0 0 33 32" fill="none" xmlns="http://www.w3.org/2000/svg">
<path d="M6.60331 3.41268L6.73835 3.7H7.05582H30.7198C31.0116 3.7 31.2914 3.81589 31.4976 4.02218C31.7039 4.22847 31.8198 4.50826 31.8198 4.8C31.8198 4.97168 31.77 5.1654 31.6786 5.37914L25.9631 15.7086C25.963 15.7087 25.9629 15.7089 25.9628 15.7091C25.503 16.5336 24.6102 17.1 23.5998 17.1H11.6798H11.3847L11.2421 17.3583L9.80211 19.9663L9.77058 20.0234L9.75475 20.0867L9.70675 20.2787L9.69182 20.3384V20.4C9.69182 20.6387 9.78664 20.8676 9.95543 21.0364C10.1242 21.2052 10.3531 21.3 10.5918 21.3H28.6198V23.5H9.91982C9.20374 23.5 8.51698 23.2155 8.01064 22.7092C7.50429 22.2028 7.21982 21.5161 7.21982 20.8C7.21982 20.3268 7.3413 19.8808 7.54288 19.5033L9.71699 15.5867L9.84173 15.362L9.73158 15.1297L3.97158 2.98573L3.83606 2.7H3.51982H0.819824V0.5H5.23435L6.60331 3.41268ZM24.3198 14.9H24.6139L24.7568 14.643L29.2048 6.64297L29.6179 5.9H28.7678H8.54382H7.75493L8.09166 6.61342L11.8677 14.6134L12.0029 14.9H12.3198H24.3198ZM25.9198 26.1C26.6359 26.1 27.3227 26.3845 27.829 26.8908C28.3354 27.3972 28.6198 28.0839 28.6198 28.8C28.6198 29.5161 28.3354 30.2028 27.829 30.7092C27.3227 31.2155 26.6359 31.5 25.9198 31.5C25.2037 31.5 24.517 31.2155 24.0106 30.7092C23.5043 30.2028 23.2198 29.5161 23.2198 28.8C23.2198 27.3001 24.42 26.1 25.9198 26.1ZM9.91982 26.1C10.6359 26.1 11.3227 26.3845 11.829 26.8908C12.3354 27.3972 12.6198 28.0839 12.6198 28.8C12.6198 29.5161 12.3354 30.2028 11.829 30.7092C11.3227 31.2155 10.6359 31.5 9.91982 31.5C9.20374 31.5 8.51698 31.2155 8.01064 30.7092C7.50429 30.2028 7.21982 29.5161 7.21982 28.8C7.21982 27.3001 8.41997 26.1 9.91982 26.1Z" fill="#FEFEFE" stroke="white"/>
</svg>
