<svg width="38" height="41" viewBox="0 0 38 41" fill="none" xmlns="http://www.w3.org/2000/svg">
<path fill-rule="evenodd" clip-rule="evenodd" d="M18.8902 0.618805C29.3204 0.618805 37.7778 9.79929 37.7778 21.1266C37.7778 30.1853 32.3662 37.8715 24.859 40.5834C23.9146 40.7718 23.5699 40.1387 23.5699 39.5952C23.5699 39.1082 23.5864 37.8189 23.5958 36.1079C28.8505 37.3472 29.959 33.3587 29.959 33.3587C30.8173 30.9902 32.0557 30.3597 32.0557 30.3597C33.771 29.087 31.9258 29.1126 31.9258 29.1126C30.031 29.2574 29.0335 31.226 29.0335 31.226C27.3476 34.3597 24.6123 33.4549 23.5356 32.9294C23.3644 31.6041 22.8757 30.7006 22.3362 30.1879C26.5307 29.6701 30.9401 27.9117 30.9401 20.0539C30.9401 17.8148 30.2046 15.9846 28.9957 14.5504C29.1905 14.0313 29.8386 11.9474 28.8115 9.12389C28.8115 9.12389 27.2249 8.57275 23.6171 11.2258C22.1095 10.7708 20.4945 10.5439 18.8878 10.535C17.2834 10.5439 15.6672 10.7708 14.1585 11.2258C10.5531 8.57275 8.96991 9.12389 8.96991 9.12389C7.93928 11.9474 8.58744 14.0313 8.78223 14.5504C7.57098 15.9846 6.84019 17.8148 6.84019 20.0539C6.84019 27.9309 11.2567 29.665 15.4642 30.1725C14.7865 30.8056 14.1821 32.0566 14.1821 33.9701C14.1821 36.7116 14.2057 38.9224 14.2057 39.5952C14.2057 40.1438 13.8657 40.7821 12.9071 40.5808C5.40699 37.8637 7.24792e-05 30.1828 7.24792e-05 21.1266C7.24792e-05 9.79929 8.45759 0.618805 18.8902 0.618805Z" fill="#3E75C3"/>
</svg>
