<svg width="54" height="55" viewBox="0 0 54 55" fill="none" xmlns="http://www.w3.org/2000/svg">
<mask id="mask0_54782_1127" style="mask-type:alpha" maskUnits="userSpaceOnUse" x="10" y="4" width="36" height="39">
<path d="M43.8033 21.6111C45.6529 22.629 45.6529 25.2569 43.8033 26.2748L14.2223 42.5525C12.4209 43.5437 10.2043 42.2574 10.2043 40.2206L10.2043 7.66524C10.2043 5.62852 12.4209 4.34215 14.2223 5.33343L43.8033 21.6111Z" fill="#C4C4C4"/>
</mask>
<g mask="url(#mask0_54782_1127)">
<path d="M11.1296 42.2327L29.5813 23.6773L11.4335 5.42752C10.7095 5.89165 10.2043 6.69296 10.2043 7.66528V40.2207C10.2043 41.0502 10.572 41.7553 11.1296 42.2327Z" fill="url(#paint0_linear_54782_1127)"/>
<path d="M43.8032 21.6111C45.6529 22.6289 45.6529 25.2569 43.8032 26.2747L36.3406 30.3812L29.5813 23.6771L35.9959 17.3149L43.8032 21.6111Z" fill="url(#paint1_linear_54782_1127)"/>
<path d="M36.3407 30.3813L29.5814 23.6771L11.1296 42.2326C11.9411 42.9274 13.1547 43.14 14.2224 42.5524L36.3407 30.3813Z" fill="url(#paint2_linear_54782_1127)"/>
<path d="M11.4336 5.42745L29.5814 23.6772L35.996 17.3149L14.2224 5.33343C13.2809 4.81539 12.2262 4.91939 11.4336 5.42745Z" fill="url(#paint3_linear_54782_1127)"/>
</g>
<defs>
<linearGradient id="paint0_linear_54782_1127" x1="22.8532" y1="16.4702" x2="10.3079" y2="29.1187" gradientUnits="userSpaceOnUse">
<stop stop-color="#00C3FF"/>
<stop offset="1" stop-color="#1BE2FA"/>
</linearGradient>
<linearGradient id="paint1_linear_54782_1127" x1="29.5813" y1="23.6772" x2="46.267" y2="23.6772" gradientUnits="userSpaceOnUse">
<stop stop-color="#FFCE00"/>
<stop offset="1" stop-color="#FFEA00"/>
</linearGradient>
<linearGradient id="paint2_linear_54782_1127" x1="10.7427" y1="44.4976" x2="32.938" y2="26.7032" gradientUnits="userSpaceOnUse">
<stop stop-color="#DE2453"/>
<stop offset="1" stop-color="#FE3944"/>
</linearGradient>
<linearGradient id="paint3_linear_54782_1127" x1="11.8191" y1="3.39056" x2="32.9418" y2="20.6433" gradientUnits="userSpaceOnUse">
<stop stop-color="#11D574"/>
<stop offset="1" stop-color="#01F176"/>
</linearGradient>
</defs>
</svg>
