<svg width="60" height="42" viewBox="0 0 60 42" fill="none" xmlns="http://www.w3.org/2000/svg">
<path fill-rule="evenodd" clip-rule="evenodd" d="M1.5531 12.9636C0.00882431 16.8009 -0.39523 21.0233 0.392093 25.097C1.17932 29.1705 3.12257 32.9124 5.97596 35.8493C8.82934 38.7861 12.4649 40.7862 16.4226 41.5965C20.3806 42.4068 24.483 41.9909 28.2112 40.4015C31.9393 38.8121 35.1259 36.1203 37.3677 32.667C37.4275 32.5749 37.4866 32.4824 37.5449 32.3894C37.586 32.3238 37.6269 32.2578 37.6674 32.1917V42H39.2369C43.2723 42 47.217 40.7684 50.5722 38.4608C53.9275 36.1535 56.5426 32.8736 58.0868 29.0363C59.6312 25.1991 60.0353 20.9768 59.2479 16.9031C58.4606 12.8295 56.5176 9.08763 53.6641 6.15078C50.8106 3.21383 47.1751 1.21382 43.2174 0.403562C39.2594 -0.406792 35.157 0.00908321 31.4288 1.59854C27.7007 3.188 24.5141 5.87964 22.2723 9.33303C22.1703 9.4902 22.0704 9.64874 21.9726 9.80837V1.25213e-05H20.4031C16.3678 1.25213e-05 12.423 1.23166 9.06778 3.53919C5.71253 5.84661 3.09739 9.12638 1.5531 12.9636ZM18.8337 21V3.30434C15.9731 3.57311 13.2139 4.57346 10.8117 6.22541C7.97259 8.1779 5.75985 10.9532 4.45314 14.2C3.14643 17.447 2.80454 21.0197 3.47069 24.4667C4.13684 27.9135 5.78113 31.0797 8.19549 33.5648C10.61 36.0498 13.6862 37.7421 17.0351 38.4278C20.3841 39.1134 23.8553 38.7615 27.0099 37.4166C30.0378 36.1257 32.6435 33.9756 34.5254 31.221C33.0992 31.9179 31.5038 32.3078 29.82 32.3078C23.7525 32.3078 18.8337 27.245 18.8337 21ZM40.8063 38.6957V21C40.8063 14.755 35.8875 9.69231 29.82 9.69231C28.1362 9.69231 26.5408 10.0822 25.1146 10.779C26.9965 8.02439 29.6022 5.87421 32.6301 4.5834C35.7847 3.23847 39.2559 2.88659 42.6049 3.57222C45.9538 4.25784 49.03 5.95023 51.4446 8.43522C53.8589 10.9203 55.5032 14.0865 56.1693 17.5334C56.8354 20.9804 56.4935 24.5531 55.1868 27.8C53.8803 31.0469 51.6675 33.8222 48.8283 35.7746C46.4262 37.4265 43.6669 38.4269 40.8063 38.6957ZM29.663 29.0754C25.4536 28.9904 22.0568 25.494 21.9742 21.1616H24.9431C27.2852 21.711 29.1289 23.6085 29.663 26.0192V29.0754ZM29.9769 29.0754C34.1862 28.9904 37.5832 25.494 37.6658 21.1616H34.6969C32.3546 21.711 30.5108 23.6088 29.9769 26.0198V29.0754ZM37.6658 20.8385C37.5832 16.506 34.1862 13.0097 29.9769 12.9247V15.9803C30.5108 18.3911 32.3544 20.2889 34.6965 20.8385H37.6658ZM29.663 12.9247C25.4538 13.0097 22.0568 16.506 21.9742 20.8385H24.9435C27.2855 20.2889 29.1291 18.3914 29.663 15.9809V12.9247Z" fill="#8046FD"/>
</svg>
