<svg width="41" height="40" viewBox="0 0 41 40" fill="none" xmlns="http://www.w3.org/2000/svg">
<path d="M16.4732 5C19.3464 5 22.1019 6.14137 24.1335 8.17301C26.1652 10.2047 27.3066 12.9602 27.3066 15.8333C27.3066 18.5167 26.3232 20.9833 24.7066 22.8833L25.1566 23.3333H26.4732L34.8066 31.6667L32.3066 34.1667L23.9732 25.8333V24.5167L23.5232 24.0667C21.5575 25.7446 19.0577 26.6665 16.4732 26.6667C13.6 26.6667 10.8445 25.5253 8.8129 23.4937C6.78126 21.462 5.63989 18.7065 5.63989 15.8333C5.63989 12.9602 6.78126 10.2047 8.8129 8.17301C10.8445 6.14137 13.6 5 16.4732 5ZM16.4732 8.33333C12.3066 8.33333 8.97322 11.6667 8.97322 15.8333C8.97322 20 12.3066 23.3333 16.4732 23.3333C20.6399 23.3333 23.9732 20 23.9732 15.8333C23.9732 11.6667 20.6399 8.33333 16.4732 8.33333Z" fill="white"/>
</svg>
