<svg width="45" height="45" viewBox="0 0 45 45" fill="none" xmlns="http://www.w3.org/2000/svg">
<circle opacity="0.852" cx="22.5" cy="22.3688" r="19.25" fill="url(#paint0_radial_54782_1134)"/>
<path d="M9.78326 36.8521C9.757 36.8329 9.73009 36.8085 9.70316 36.7789C9.20486 36.3256 8.39324 35.6106 7.5451 34.5299C6.81261 32.9411 7.22782 30.2723 9.03042 26.5041C11.5738 21.1876 15.6432 15.7895 17.3116 13.8747C16.8369 13.3451 15.3665 11.8948 13.2829 10.3304C11.1994 8.76595 9.68152 8.60571 9.1525 8.70077C9.64083 8.17115 10.7803 7.17302 11.7366 6.50081C14.6991 5.03417 20.1737 7.51252 22.5204 8.92484V18.6413C16.5384 23.2449 11.0041 30.3541 9.88499 33.1244C9.03086 35.2388 9.36852 36.4114 9.70316 36.7789C9.73084 36.8041 9.75756 36.8285 9.78326 36.8521Z" fill="url(#paint1_linear_54782_1134)"/>
<path d="M9.78326 36.8518C9.757 36.8326 9.73009 36.8082 9.70316 36.7786C9.20486 36.3253 8.39324 35.6103 7.5451 34.5296C6.81261 32.9407 7.22782 30.2719 9.03042 26.5038C11.9832 20.3314 17.3116 13.8744 17.3116 13.8744C17.3116 13.8744 18.263 16.237 20.4223 20.3314C14.8612 25.261 11.0041 30.3537 9.88499 33.1241C9.03086 35.2385 9.36852 36.4111 9.70316 36.7786C9.73084 36.8038 9.75756 36.8282 9.78326 36.8518Z" fill="url(#paint2_linear_54782_1134)"/>
<path d="M35.2575 36.8521C35.2838 36.8329 35.3107 36.8085 35.3376 36.7789C35.8359 36.3256 36.6475 35.6106 37.4957 34.5299C38.2282 32.9411 37.813 30.2723 36.0103 26.5041C33.467 21.1876 29.3976 15.7895 27.7292 13.8747C28.2039 13.3451 29.6743 11.8948 31.7578 10.3304C33.8414 8.76595 35.3593 8.60571 35.8883 8.70077C35.3999 8.17115 34.2605 7.17302 33.3042 6.50081C30.3417 5.03417 24.867 7.51252 22.5203 8.92484V18.6413C28.5024 23.2449 34.0367 30.3541 35.1558 33.1244C36.0099 35.2388 35.6722 36.4114 35.3376 36.7789C35.3099 36.8041 35.2832 36.8285 35.2575 36.8521Z" fill="url(#paint3_linear_54782_1134)"/>
<path d="M35.2575 36.8518C35.2838 36.8326 35.3107 36.8082 35.3376 36.7786C35.8359 36.3253 36.6475 35.6103 37.4957 34.5296C38.2282 32.9407 37.813 30.2719 36.0103 26.5038C33.0576 20.3314 27.7292 13.8744 27.7292 13.8744C27.7292 13.8744 26.7778 16.237 24.6185 20.3314C30.1796 25.261 34.0367 30.3537 35.1558 33.1241C36.0099 35.2385 35.6722 36.4111 35.3376 36.7786C35.3099 36.8038 35.2832 36.8282 35.2575 36.8518Z" fill="url(#paint4_linear_54782_1134)"/>
<defs>
<radialGradient id="paint0_radial_54782_1134" cx="0" cy="0" r="1" gradientUnits="userSpaceOnUse" gradientTransform="translate(22.5 20.3063) rotate(90.0548) scale(21.3125)">
<stop stop-color="#FAFAFA"/>
<stop offset="0.499976" stop-color="#EFEFEF"/>
<stop offset="0.828794" stop-color="#C0BEC0"/>
<stop offset="1" stop-color="#879288"/>
</radialGradient>
<linearGradient id="paint1_linear_54782_1134" x1="18.3649" y1="6.86691" x2="18.6908" y2="17.9484" gradientUnits="userSpaceOnUse">
<stop stop-color="#008B00"/>
<stop offset="1" stop-color="#6CC329"/>
</linearGradient>
<linearGradient id="paint2_linear_54782_1134" x1="14.4538" y1="17.7855" x2="18.2019" y2="22.9189" gradientUnits="userSpaceOnUse">
<stop stop-color="#008C00"/>
<stop offset="1" stop-color="#48BF21"/>
</linearGradient>
<linearGradient id="paint3_linear_54782_1134" x1="26.6759" y1="6.86691" x2="26.35" y2="17.9484" gradientUnits="userSpaceOnUse">
<stop stop-color="#008B00"/>
<stop offset="1" stop-color="#6CC329"/>
</linearGradient>
<linearGradient id="paint4_linear_54782_1134" x1="30.587" y1="17.7855" x2="26.8389" y2="22.9189" gradientUnits="userSpaceOnUse">
<stop stop-color="#008C00"/>
<stop offset="1" stop-color="#48BF21"/>
</linearGradient>
</defs>
</svg>
