<svg width="52" height="52" viewBox="0 0 52 52" fill="none" xmlns="http://www.w3.org/2000/svg">
<g clip-path="url(#clip0_54782_1133)">
<path d="M1.60154 35.8593C-0.307196 37.196 0.0462208 39.4988 4.40101 40.9388C8.7558 42.3787 13.8174 42.6765 18.2711 41.8744C18.1439 41.8744 18.5256 41.8744 18.2711 41.8744V37.3297L13.9447 38.8001C12.2904 39.3347 10.6362 39.4684 8.98197 39.0674C7.70948 38.6664 7.96398 37.8644 9.49097 37.196L18.2711 33.988V29.0422L6.05525 33.4533C4.52826 33.988 3.00127 34.79 1.60154 35.8593ZM31.1233 15.8089V28.7749C36.3405 31.4482 40.4124 28.7749 40.4124 21.824C40.4124 14.7396 37.9947 11.5315 30.996 8.99179C27.3058 7.6551 23.4883 6.45207 19.6709 5.65005V44.2805L28.5783 47.0876V14.6059C28.5783 13.1355 28.5783 12.0662 29.5963 12.4672C30.996 12.8682 31.1233 14.3386 31.1233 15.8089ZM47.6656 32.7849C43.9754 31.4482 40.0307 30.9136 36.2132 31.3146C34.093 31.4538 32.1031 32.0854 30.1053 32.7849V37.998L38.3765 34.79C40.0307 34.2553 41.6849 34.1216 43.3392 34.5226C44.6116 34.9236 44.3572 35.7257 42.8302 36.394L30.1053 41.3398V46.4192L47.6656 39.6021C48.9381 39.0674 50.0834 38.399 51.1013 37.3297C51.9921 35.993 51.6103 34.1216 47.6656 32.7849Z" fill="#0070D1"/>
</g>
<defs>
<clipPath id="clip0_54782_1133">
<rect width="51" height="51" fill="white" transform="translate(0.5 0.868805)"/>
</clipPath>
</defs>
</svg>
