<svg width="42" height="43" viewBox="0 0 42 43" fill="none" xmlns="http://www.w3.org/2000/svg">
<path d="M3.37318 26.6542C5.64477 34.2266 12.6717 39.7438 20.9882 39.7438C31.1427 39.7438 39.3749 31.5168 39.3749 21.3688C39.3749 11.2206 31.1427 2.9938 20.9882 2.9938C11.2438 2.9938 3.2706 10.5692 2.64087 20.148C2.64087 22.9 2.64087 24.0485 3.37318 26.6542Z" fill="url(#paint0_linear_54782_1124)"/>
<path d="M20.0427 16.8576L15.5434 23.3893C14.4828 23.3411 13.4151 23.6411 12.5288 24.2236L2.64901 20.1591C2.64901 20.1591 2.4204 23.9177 3.37311 26.7189L10.3576 29.5989C10.7082 31.1651 11.7833 32.5389 13.3695 33.1998C15.9646 34.2834 18.9569 33.0484 20.0364 30.4538C20.3173 29.7756 20.4483 29.0642 20.4294 28.3545L27.0249 23.7599C30.8775 23.7599 34.0087 20.6212 34.0087 16.7667C34.0087 12.9119 30.8775 9.776 27.0249 9.776C23.3039 9.776 19.8342 13.0228 20.0427 16.8576ZM18.9616 30.0027C18.1261 32.0074 15.8209 32.9585 13.8171 32.1241C12.8927 31.7393 12.1948 31.0342 11.7922 30.1935L14.0657 31.1352C15.5434 31.7503 17.2388 31.05 17.853 29.5737C18.4692 28.0958 17.7702 26.3987 16.2932 25.7835L13.943 24.8104C14.8499 24.4665 15.8808 24.4539 16.844 24.8545C17.8151 25.2583 18.5686 26.0186 18.9679 26.9901C19.3672 27.9617 19.3656 29.0343 18.9616 30.0027ZM27.0249 21.4256C24.4603 21.4256 22.3722 19.3357 22.3722 16.7667C22.3722 14.1997 24.4603 12.1092 27.0249 12.1092C29.5912 12.1092 31.6792 14.1997 31.6792 16.7667C31.6792 19.3357 29.5912 21.4256 27.0249 21.4256ZM23.5386 16.7596C23.5386 14.827 25.1042 13.2595 27.0328 13.2595C28.963 13.2595 30.5287 14.827 30.5287 16.7596C30.5287 18.6924 28.963 20.2584 27.0328 20.2584C25.1042 20.2584 23.5386 18.6924 23.5386 16.7596Z" fill="white"/>
<defs>
<linearGradient id="paint0_linear_54782_1124" x1="21.0079" y1="2.9938" x2="21.0079" y2="39.7438" gradientUnits="userSpaceOnUse">
<stop stop-color="#111D2E"/>
<stop offset="0.21248" stop-color="#051839"/>
<stop offset="0.40695" stop-color="#0A1B48"/>
<stop offset="0.5811" stop-color="#132E62"/>
<stop offset="0.7376" stop-color="#144B7E"/>
<stop offset="0.87279" stop-color="#136497"/>
<stop offset="1" stop-color="#1387B8"/>
</linearGradient>
</defs>
</svg>
