<svg width="45" height="36" viewBox="0 0 45 36" fill="none" xmlns="http://www.w3.org/2000/svg">
<path d="M14.3908 35.1188C9.3801 35.1188 4.70924 33.687 0.777832 31.2165C4.11573 31.4287 10.0064 30.9205 13.6703 27.487C8.15852 27.2385 5.6728 23.0853 5.34858 21.3105C5.8169 21.488 8.05045 21.701 9.31132 21.204C2.97094 19.6421 1.99826 14.1756 2.21441 12.5072C3.40323 13.3237 5.42063 13.6076 6.21318 13.5367C0.305093 9.38351 2.43056 3.13605 3.47528 1.78716C7.71514 7.55808 14.0694 10.7992 21.9304 10.9795C21.7822 10.3409 21.7039 9.67597 21.7039 8.99304C21.7039 4.09194 25.7361 0.118805 30.7101 0.118805C33.3089 0.118805 35.6507 1.20343 37.2945 2.93834C39.0312 2.53853 41.6448 1.6026 42.9225 0.793247C42.2785 3.06505 40.2735 4.9602 39.0606 5.66262C39.0507 5.63862 39.0707 5.68651 39.0606 5.66262C40.126 5.50429 43.0086 4.96002 44.1474 4.20095C43.5842 5.47723 41.4585 7.59926 39.714 8.78727C40.0385 22.8506 29.0865 35.1188 14.3908 35.1188Z" fill="#47ACDF"/>
</svg>
