<svg width="47" height="47" viewBox="0 0 47 47" fill="none" xmlns="http://www.w3.org/2000/svg">
<path d="M3.37369 14.9091C3.55846 12.0647 5.84539 9.83543 8.69239 9.69438C12.815 9.49014 18.7075 9.2438 23.1472 9.2438C27.587 9.2438 33.4794 9.49014 37.602 9.69438C40.449 9.83543 42.736 12.0647 42.9207 14.9091C43.0978 17.6344 43.2722 20.9877 43.2722 23.6188C43.2722 26.2499 43.0978 29.6032 42.9207 32.3285C42.736 35.173 40.449 37.4022 37.602 37.5432C33.4794 37.7475 27.587 37.9938 23.1472 37.9938C18.7075 37.9938 12.815 37.7475 8.69239 37.5432C5.84539 37.4022 3.55846 35.173 3.37369 32.3285C3.19668 29.6032 3.02222 26.2499 3.02222 23.6188C3.02222 20.9877 3.19668 17.6344 3.37369 14.9091Z" fill="#FC0D1B"/>
<path d="M18.8347 17.8688V29.3688L30.3347 23.6188L18.8347 17.8688Z" fill="white"/>
</svg>
